# xmcd CD database file
#
# Track frame offsets:
#	150
#	9447
#	22785
#	34490
#	45845
#	58065
#	67877
#	77252
#	87795
#	100850
#	112322
#	122550
#	139932
#	150110
#	159870
#	167145
#	182925
#	196367
#	207362
#	220242
#	231692
#	247660
#
# Disc length: 3378 seconds
#
# Revision: 2
# Processed by: cddbd v1.5.1PL0 Copyright (c) Steve Scherf et al.
# Submitted via: CDex 1.51
#
DISCID=190d3016
DTITLE=Various Artist - ファイト！青盤?がんばれ！お父さんのアニソン?
DYEAR=2003
DGENRE=Music
TTITLE0=新田　洋/行け！タイガーマスク
TTITLE1=十田敬三、ボーカル・ショップ/デビルマンのうた
TTITLE2=ささきいさお/たたかえ！キャシャーン
TTITLE3=秀　夕木、ヤング・フレッシュ/風よ！光よ！
TTITLE4=子門真人/アイアンキング
TTITLE5=植木浩史、ハニー・ナイツ/ミラーマンの唄
TTITLE6=ボーカル・ショップ/マッハ・ゴー・ゴー・ゴー
TTITLE7=安永憲自、ヤング・フレッシュ/行けレインボーマン
TTITLE8=子門真人、杉並児童合唱団/ゼロテスター
TTITLE9=ボーカル・ショップ/荒野の少年イサム
TTITLE10=松本茂之/侍ジャイアンツ
TTITLE11=チャーリー・コーセイ/ルパン三世 その１
TTITLE12=水原　弘/忍のテーマ
TTITLE13=桂　京子/花のア太郎
TTITLE14=ハニー・ナイツ/妖怪人間ベム
TTITLE15=アイドル・フォー/天才バカボン
TTITLE16=フォー・メイツ/赤き血のイレブン
TTITLE17=沢村　忠、少年少女合唱団みずうみ/キックの鬼
TTITLE18=フォー・スラッガーズ/男どアホウ！甲子園
TTITLE19=桜木健一/柔道一直線
TTITLE20=尾藤イサオ/あしたのジョー
TTITLE21=ヤング・フレッシュ、ボーカル・ショップ/忍者マーチ（Tvバージョン）
EXTD=YEAR: 2003
EXTT0=
EXTT1=
EXTT2=
EXTT3=
EXTT4=
EXTT5=
EXTT6=
EXTT7=
EXTT8=
EXTT9=
EXTT10=
EXTT11=
EXTT12=
EXTT13=
EXTT14=
EXTT15=
EXTT16=
EXTT17=
EXTT18=
EXTT19=
EXTT20=
EXTT21=
PLAYORDER=
